# AST/ASF file generated using VICON BodyLanguage
# -----------------------------------------------
:version 1.10
:name VICON
:units
  mass 1.0
  length 0.45
  angle deg
:documentation
   .ast/.asf automatically generated from VICON data using
   VICON BodyBuilder and BodyLanguage model FoxedUp or BRILLIANT.MOD
:root
   order TX TY TZ RX RY RZ
   axis XYZ
   position 0 0 0  
   orientation 0 -0 0 
:bonedata
  begin
     id 1 
     name lhipjoint
     direction 0.432694 -0.693742 0.575759 
     length 2.19277 
     axis 0 -0 0  XYZ
  end
  begin
     id 2 
     name lfemur
     direction 0.34202 -0.939693 0  
     length 6.69022  
     axis 0 -0 20  XYZ
    dof rx ry rz
    limits (-160.0 20.0)
           (-70.0 70.0)
           (-60.0 70.0)
  end
  begin
     id 3 
     name ltibia
     direction 0.34202 -0.939693 0   
     length 6.50337   
     axis 0 -0 20   XYZ
    dof rx
    limits (-10.0 170.0)
  end
  begin
     id 4 
     name lfoot
     direction 0.158999 -0.435969 0.885805   
     length 2.70564   
     axis -90 -1.13533e-015 20   XYZ
    dof rx rz
    limits (-45.0 90.0)
           (-70.0 20.0)
  end
  begin
     id 5 
     name ltoes
     direction -0.00592919 0.00964381 0.999936   
     length 1.29929   
     axis -90 -1.13533e-015 20   XYZ
    dof rx
    limits (-90.0 20.0)
  end
  begin
     id 6 
     name rhipjoint
     direction -0.414359 -0.700339 0.581234   
     length 2.17212  
     axis 0 -0 0  XYZ 
  end
  begin
     id 7 
     name rfemur
     direction -0.34202 -0.939693 0   
     length 7.17659   
     axis 0 -0 -20   XYZ
    dof rx ry rz
    limits (-160.0 20.0)
           (-70.0 70.0)
           (-70.0 60.0)
  end
  begin
     id 8 
     name rtibia
     direction -0.34202 -0.939693 0   
     length 6.36669   
     axis 0 -0 -20   XYZ
    dof rx
    limits (-10.0 170.0)
 end
 begin
     id 9 
     name rfoot
     direction -0.137064 -0.37658 0.916188   
     length 2.22351  
     axis -90 1.13533e-015 -20   XYZ
    dof rx rz
    limits (-45.0 90.0)
           (-20.0 70.0)
  end
  begin
     id 10 
     name rtoes
     direction -0.000784077 -0.00289101 0.999996   
     length 1.09522   
     axis -90 1.13533e-015 -20   XYZ
    dof rx
    limits (-90.0 20.0)
  end
  begin
     id 11 
     name lowerback
     direction -0.0176242 0.984912 -0.172157   
     length 1.65301   
     axis 0 -0 0   XYZ
    dof rx ry rz
    limits (-20.0 45.0)
           (-30.0 30.0)
           (-30.0 30.0)
  end
  begin
     id 12 
     name upperback
     direction -0.00218128 0.998776 -0.0494072   
     length 1.67776   
     axis 0 -0 0   XYZ
    dof rx ry rz
    limits (-20.0 45.0)
           (-30.0 30.0)
           (-30.0 30.0)
  end
  begin
     id 13 
     name thorax
     direction 0.00544186 0.999658 0.0255711   
     length 1.72293   
     axis 0 -0 0   XYZ
    dof rx ry rz
    limits (-20.0 45.0)
           (-30.0 30.0)
           (-30.0 30.0)
  end
  begin
     id 14 
     name lowerneck
     direction -0.105325 0.983841 0.144785   
     length 2.14226   
     axis 0 -0 0   XYZ
    dof rx ry rz
    limits (-20.0 45.0)
           (-30.0 30.0)
           (-30.0 30.0)
  end
  begin
     id 15 
     name upperneck
     direction 0.0547957 0.988053 -0.144041   
     length 2.17508   
     axis 0 -0 0   XYZ
    dof rx ry rz
    limits (-20.0 45.0)
           (-30.0 30.0)
           (-30.0 30.0)
  end
  begin
     id 16
     name head
     direction 0.0247488 0.997534 -0.0656813  
     length 2.20048  
     axis 0 -0 0   XYZ
    dof rx ry rz
    limits (-20.0 45.0)
           (-30.0 30.0)
           (-30.0 30.0)
  end
  begin
     id 17 
     name lclavicle
     direction 0.820559 0.567247 -0.0701026  
     length 4.09615  
     axis 0 -0 0   XYZ
    dof ry rz
    limits (-20.0 10.0)
           (0.0 20.0)
  end
  begin
     id 18 
     name lhumerus
     direction 0.999977 -0.0067566 -9.96392e-005   
     length 4.59333   
     axis -180 -30 -90   XYZ
    dof rx ry rz
    limits (-60.0 90.0)
           (-90.0 90.0)
           (-90.0 90.0)
  end
  begin
     id 19
     name lradius
     direction 1 -4.48982e-011 -2.53425e-027   
     length 2.81151   
     axis -180 -30 -90   XYZ
    dof rx
    limits (-10.0 170.0)
  end
  begin
     id 20
     name lwrist
     direction 1 -4.48939e-011 -7.39254e-028   
     length 1.40576   
     axis 2.56395e-016 90 90   XYZ
    dof ry
    limits (-180.0 0.0)
 end
  begin
     id 21 
     name lhand
     direction 1 -4.48939e-011 -1.47851e-027   
     length 0.895651   
     axis 9.43423e-016 90 90   XYZ
    dof rx rz
    limits (-90.0 90.0)
           (-45.0 45.0)
  end
  begin
     id 22 
     name lfingers
     direction 1 -4.48978e-011 -2.95702e-027   
     length 0.722097   
     axis 1.88685e-015 90 90   XYZ
    dof rx
    limits (0.0 90.0)
  end
  begin
     id 23
     name lthumb
     direction 0.707107 -6.34931e-011 0.707107   
     length 1.03679   
     axis -90 45 -9.86935e-015   XYZ
    dof rx rz
    limits (-45.0 45.0)
           (-45.0 45.0)
  end
  begin
     id 24 
     name rclavicle
     direction -0.831414 0.553102 -0.0531864   
     length 4.24872  
     axis 0 -0 0   XYZ 
    dof ry rz
    limits (-10.0 20.0)
           (-20.0 0.0)
  end
  begin
     id 25 
     name rhumerus
     direction -0.999916 -0.000939607 0.0129331  
     length 4.74834   
     axis -180 30 90   XYZ
    dof rx ry rz
    limits (-90.0 60.0)
           (-90.0 90.0)
           (-90.0 90.0)
  end
  begin
     id 26 
     name rradius
     direction -1 -4.48956e-011 -1.31752e-027   
     length 2.79907   
     axis -180 30 90   XYZ
    dof rx
    limits (-10.0 170.0)
  end
  begin
     id 27 
     name rwrist
     direction -1 -4.4897e-011 -7.39254e-028   
     length 1.39954   
     axis 2.56395e-016 -90 -90   XYZ
    dof ry
    limits (-180.0 0.0)
  end
  begin
     id 28
     name rhand
     direction -0.999997 -0.00250697 0.000800838   
     length 0.953304   
     axis 9.43423e-016 -90 -90   XYZ
    dof rx rz
    limits (-90.0 90.0)
           (-45.0 45.0)
  end
  begin
     id 29
     name rfingers
     direction -1 -4.48954e-011 -2.95702e-027   
     length 0.763342   
     axis 1.88685e-015 -90 -90   XYZ
    dof rx
    limits (0.0 90.0)
  end
  begin
     id 30
     name rthumb
     direction -0.709701 -0.00217037 0.7045   
     length 1.10115   
     axis -90 -45 9.86935e-015   XYZ
    dof rx rz
    limits (-45.0 45.0)
           (-45.0 45.0)
  end
:hierarchy
  begin
    root lhipjoint rhipjoint lowerback
    lhipjoint lfemur
    lfemur ltibia
    ltibia lfoot
    lfoot ltoes
    rhipjoint rfemur
    rfemur rtibia
    rtibia rfoot
    rfoot rtoes
    lowerback upperback
    upperback thorax
    thorax lowerneck lclavicle rclavicle
    lowerneck upperneck
    upperneck head
    lclavicle lhumerus
    lhumerus lradius
    lradius lwrist
    lwrist lhand lthumb
    lhand lfingers
    rclavicle rhumerus
    rhumerus rradius
    rradius rwrist
    rwrist rhand rthumb
    rhand rfingers
  end

#!OML:ASF G:\ViconDB\ViconDB\414\test\team2\shane.ASF
:FULLY-SPECIFIED
:DEGREES
33
root 3.78632 15.7534 -18.9057 -0.995292 -0.559563 -4.35527
lowerback 32.5793 0.753615 17.892
upperback 3.37718 7.35374 0.309403
thorax -10.7195 2.70895 -11.7556
lowerneck -11.3735 -11.9192 -29.5702
upperneck -3.43386 -12.6527 21.1062
head 4.18063 -5.60834 10.3978
rclavicle -1.80894e-013 -2.22639e-014
rhumerus 40.5325 -12.1847 327.675
rradius 82.7958
rwrist 19.0792
rhand -40.7191 -23.2464
rfingers 7.12502
rthumb -13.6609 -52.778
lclavicle -1.80894e-013 -2.22639e-014
lhumerus -117.067 -179.599 226.777
lradius 75.6478
lwrist 6.47343
lhand -53.7737 14.3116
lfingers 7.12502
lthumb -26.2067 42.5223
rfemur -21.8374 -23.8888 14.2089
rtibia 62.0295
rfoot -22.4469 -4.99883
rtoes -19.2935
lfemur -20.8853 18.1276 -4.87887
ltibia 59.8703
lfoot -32.0061 -5.39413
ltoes -16.2815
34
root 3.81224 16.0947 -18.7693 -1.95288 -0.438971 -4.43035
lowerback 59.0943 4.95183 3.03548
upperback 5.19475 22.1059 8.25208
thorax -120.472 -8.9192 -12.3618
lowerneck 49.3453 13.8024 -31.9288
upperneck 16.8494 -0.106595 16.5354
head 0.474874 -3.42128 10.8761
rclavicle 5.56597e-015 -3.1408e-014
rhumerus -23.0853 50.5959 308.663
rradius 93.4114
rwrist 18.6188
rhand -41.0473 -24.1628
rfingers 7.12502
rthumb -13.9772 -53.6729
lclavicle 5.56597e-015 -3.1408e-014
lhumerus -197.697 -138.195 260.713
lradius 78.8315
lwrist 4.45824
lhand -53.611 14.5921
lfingers 7.12502
lthumb -26.051 42.8259
rfemur -17.548 -23.3967 13.5724
rtibia 56.2995
rfoot -19.2674 -4.11443
rtoes -19.9544
lfemur -16.7286 17.6365 -4.62541
ltibia 54.1983
lfoot -29.0843 -6.17355
ltoes -16.5886
35
root 3.83103 16.4522 -18.6245 -2.34244 -0.324109 -4.39496
lowerback 58.2799 4.86368 3.1253
upperback 4.99302 21.9287 8.21132
thorax -120.153 -8.63355 -12.2195
lowerneck 48.4207 13.7637 -32.2556
upperneck 18.0615 -0.0474783 16.2548
head 0.951077 -3.43953 10.7916
rclavicle 3.4191e-014 0
rhumerus -15.5255 49.5867 315.079
rradius 92.8271
rwrist 18.5746
rhand -41.2561 -25.2651
rfingers 7.12502
rthumb -14.1784 -54.7613
lclavicle 3.4191e-014 0
lhumerus -193.559 -140.414 257.091
lradius 77.2256
lwrist 4.02815
lhand -53.6456 14.98
lfingers 7.12502
lthumb -26.0841 43.2089
rfemur -13.8561 -22.7142 13.1615
rtibia 50.3248
rfoot -15.6273 -3.33528
rtoes -20.1944
lfemur -13.1002 17.4415 -4.63332
ltibia 48.3557
lfoot -25.7352 -7.17159
ltoes -17.0972
36
root 3.85229 16.8011 -18.4669 -2.61139 -0.376807 -4.62212
lowerback 57.2302 4.91441 3.28838
upperback 4.6576 22.1455 8.2916
thorax -119.302 -8.54589 -12.4144
lowerneck 47.8228 13.5964 -32.5147
upperneck 18.8845 -0.209685 16.1411
head 1.31161 -3.56667 10.7968
rclavicle 3.10104e-014 3.57812e-014
rhumerus -9.42973 48.1586 320.525
rradius 92.099
rwrist 18.0884
rhand -41.7511 -26.1972
rfingers 7.12502
rthumb -14.6553 -55.6593
lclavicle 3.10104e-014 3.57812e-014
lhumerus -190.065 -142.431 254.438
lradius 75.9499
lwrist 5.13938
lhand -53.4143 14.9014
lfingers 7.12502
lthumb -25.8626 43.1628
rfemur -10.2683 -21.3143 13.1416
rtibia 44.1508
rfoot -11.4127 -2.74401
rtoes -20.194
lfemur -9.50322 17.2754 -4.29944
ltibia 42.4463
lfoot -21.8762 -8.34847
ltoes -17.6726
37
root 3.86978 17.1643 -18.3011 -2.76385 -0.553494 -4.9876
lowerback 56.1616 4.96011 3.295
upperback 4.03564 22.0821 8.35365
thorax -117.681 -7.335 -11.9035
lowerneck 46.3273 13.4237 -33.1504
upperneck 19.5882 -0.207319 15.7483
head 1.65195 -3.56338 10.6998
rclavicle -3.89618e-014 1.07344e-014
rhumerus -2.25644 46.8197 326.183
rradius 91.4517
rwrist 17.0572
rhand -41.8124 -28.4605
rfingers 7.12502
rthumb -14.7144 -57.9183
lclavicle -3.89618e-014 1.07344e-014
lhumerus -186.52 -144.983 251.639
lradius 75.1825
lwrist 6.40655
lhand -53.5126 15.1175
lfingers 7.12502
lthumb -25.9567 43.3651
rfemur -6.74718 -19.3929 13.4128
rtibia 37.8276
rfoot -6.54045 -2.5588
rtoes -20.5824
lfemur -6.09411 17.5828 -3.71353
ltibia 36.6367
lfoot -17.4555 -9.94626
ltoes -18.9516
38
root 3.88975 17.5395 -18.1457 -2.89817 -0.542017 -5.38775
lowerback 55.0901 4.98397 3.51758
upperback 3.55806 22.4255 8.48782
thorax -116.875 -7.24861 -12.1108
lowerneck 45.7081 13.2058 -33.3059
upperneck 20.6937 -0.359099 15.5967
head 2.11194 -3.70157 10.6842
rclavicle -7.15625e-015 7.95139e-015
rhumerus 2.15022 45.9532 330.48
rradius 91.1587
rwrist 15.9593
rhand -41.6798 -31.1233
rfingers 7.12502
rthumb -14.5867 -60.5904
lclavicle -7.15625e-015 7.95139e-015
lhumerus -184.479 -145.677 249.951
lradius 74.7839
lwrist 8.8021
lhand -54.1314 17.302
lfingers 7.12502
lthumb -26.5491 45.4614
rfemur -3.35211 -17.162 13.8051
rtibia 31.6356
rfoot -1.12994 -3.19329
rtoes -20.3101
lfemur -3.03265 17.5765 -3.0285
ltibia 31.3047
lfoot -12.0093 -11.567
ltoes -20.41
39
root 3.91118 17.9205 -17.9969 -3.04209 -0.465072 -5.94331
lowerback 54.1523 4.94195 3.87932
upperback 3.21581 22.7722 8.67037
thorax -116.024 -7.24451 -12.3715
lowerneck 44.8776 12.8844 -33.4879
upperneck 21.7974 -0.574039 15.5847
head 2.58169 -3.87067 10.737
rclavicle -7.95139e-016 1.06549e-013
rhumerus 6.02474 45.0967 334.351
rradius 90.552
rwrist 15.1188
rhand -41.9592 -32.6951
rfingers 7.12502
rthumb -14.8558 -62.1426
lclavicle -7.95139e-016 1.06549e-013
lhumerus -182.492 -146.332 248.397
lradius 74.6241
lwrist 11.3051
lhand -54.5751 19.8133
lfingers 7.12502
lthumb -26.9737 47.9077
rfemur -0.438617 -14.9443 14.3842
rtibia 25.9465
rfoot 5.19647 -4.87366
rtoes -16.7989
lfemur -0.716659 17.4968 -2.08768
ltibia 26.9862
lfoot -5.26403 -12.9881
ltoes -19.3738
40
root 3.93653 18.334 -17.838 -3.05232 -0.563711 -6.60711
lowerback 53.1126 4.93267 4.28156
upperback 2.75704 23.1743 8.88554
thorax -114.765 -7.18019 -12.6711
lowerneck 43.2739 12.2482 -33.6063
upperneck 23.6888 -0.861592 15.3419
head 3.38022 -4.08333 10.7054
rclavicle -3.81667e-014 -2.98177e-014
rhumerus 9.60053 44.0086 337.93
rradius 89.5384
rwrist 14.7699
rhand -41.2602 -34.9108
rfingers 7.12502
rthumb -14.1824 -64.4066
lclavicle -3.81667e-014 -2.98177e-014
lhumerus -180.447 -146.927 246.81
lradius 74.2597
lwrist 13.2729
lhand -55.4774 22.9859
lfingers 7.12502
lthumb -27.8367 50.9438
rfemur 1.72794 -12.9033 15.1161
rtibia 21.1872
rfoot 11.5344 -6.07749
rtoes -7.0201
lfemur 0.726078 16.9119 -1.18794
ltibia 24.246
lfoot 2.48812 -12.8702
ltoes -11.123
41
root 3.96809 18.777 -17.678 -2.85614 -0.555084 -7.00934
lowerback 51.7538 5.08657 4.54708
upperback 2.28391 23.6329 8.96641
thorax -113.73 -7.4502 -13.2524
lowerneck 42.0854 11.5236 -33.4888
upperneck 25.9924 -1.31287 15.0506
head 4.35472 -4.41452 10.6603
rclavicle -2.8625e-014 -5.80451e-014
rhumerus 11.8923 43.2167 340.772
rradius 87.9912
rwrist 15.576
rhand -41.9073 -35.4751
rfingers 7.12502
rthumb -14.8059 -64.9262
lclavicle -2.8625e-014 -5.80451e-014
lhumerus -178.866 -146.894 246.012
lradius 73.8127
lwrist 14.6253
lhand -56.2197 26.1693
lfingers 7.12502
lthumb -28.5461 54.0102
rfemur 3.36935 -13.9737 15.1787
rtibia 17.8664
rfoot 14.754 -2.57233
rtoes 5.38264
lfemur 1.52655 14.1493 -1.26458
ltibia 23.2038
lfoot 8.08884 -11.1017
ltoes 9.17641
42
root 3.99379 19.1945 -17.5492 -2.42194 -0.1325 -7.30493
lowerback 50.3997 4.9823 4.93981
upperback 1.60181 23.5509 8.89679
thorax -112.35 -7.44248 -13.4966
lowerneck 40.2534 10.4651 -33.1906
upperneck 28.3574 -1.80869 14.2449
head 5.40868 -4.71203 10.3807
rclavicle 5.48646e-014 6.32135e-014
rhumerus 14.6344 42.0198 343.389
rradius 85.6293
rwrist 16.4782
rhand -42.7792 -35.6365
rfingers 7.12502
rthumb -15.6458 -65.0239
lclavicle 5.48646e-014 6.32135e-014
lhumerus -176.769 -147.204 244.695
lradius 73.436
lwrist 16.4463
lhand -56.4416 29.2674
lfingers 7.12502
lthumb -28.7582 57.0725
rfemur 4.47418 -16.3489 15.1105
rtibia 16.6717
rfoot 10.6641 2.73516
rtoes -4.39818
lfemur 1.82514 9.53091 -2.15119
ltibia 23.482
lfoot 4.74362 -7.96261
ltoes 8.35059
43
root 4.01636 19.5958 -17.4572 -1.95938 0.47206 -7.22657
lowerback 22.0458 2.60908 22.1117
upperback -0.486985 9.25922 0.858306
thorax -9.08638 3.40215 -13.2012
lowerneck -10.5292 -12.0378 -29.5463
upperneck 9.43666 -14.2587 19.193
head 8.26499 -6.82887 9.50431
rclavicle -1.44616e-013 8.74653e-015
rhumerus 44.6187 -29.4536 343.609
rradius 74.0244
rwrist 21.7349
rhand -42.8531 -36.0157
rfingers 7.12502
rthumb -15.7168 -65.3975
lclavicle -1.44616e-013 8.74653e-015
lhumerus -109.515 -191.892 232.311
lradius 68.6943
lwrist 16.3712
lhand -56.8398 31.5215
lfingers 7.12502
lthumb -29.1385 59.2613
rfemur 5.12344 -19.0296 14.6193
rtibia 17.0938
rfoot 7.21163 7.3485
rtoes -14.6175
lfemur 1.91318 9.84476 -2.4818
ltibia 24.5605
lfoot 1.27156 -7.93288
ltoes -2.1449
44
root 4.02802 19.9732 -17.4111 -1.69416 0.84384 -7.24094
lowerback 21.5508 2.82821 21.7919
upperback -0.962489 9.41996 0.922814
thorax -9.3769 3.41985 -13.007
lowerneck -10.5415 -11.9288 -28.7886
upperneck 10.3687 -14.2041 18.4305
head 8.42994 -6.84111 9.12393
rclavicle -5.33737e-014 -7.87187e-014
rhumerus 44.6626 -30.2127 345.346
rradius 71.4141
rwrist 23.1861
rhand -43.7367 -34.7322
rfingers 7.12502
rthumb -16.5677 -64.0449
lclavicle -5.33737e-014 -7.87187e-014
lhumerus -108.775 -192.367 232.01
lradius 67.1198
lwrist 16.982
lhand -57.1219 32.9579
lfingers 7.12502
lthumb -29.4078 60.6508
rfemur 5.63069 -20.5367 14.5573
rtibia 18.3789
rfoot 10.7096 7.73099
rtoes -6.9542
lfemur 2.18797 12.1559 -2.19171
ltibia 25.8174
lfoot 3.23806 -11.997
ltoes 1.65176
45
root 4.02846 20.3573 -17.4059 -1.72003 1.13424 -7.55928
lowerback 47.8655 5.04995 5.02893
upperback 1.29066 23.6078 8.72057
thorax -112.837 -7.76333 -13.8816
lowerneck 41.2198 9.67415 -32.2127
upperneck 30.8732 -2.65618 12.9895
head 6.52299 -5.26694 9.86194
rclavicle 2.62396e-014 3.45885e-014
rhumerus 21.7518 41.0053 351.183
rradius 78.4053
rwrist 17.8425
rhand -42.8231 -32.2792
rfingers 7.12502
rthumb -15.688 -61.6632
lclavicle 2.62396e-014 3.45885e-014
lhumerus -172.175 -146.499 242.354
lradius 68.6215
lwrist 18.1122
lhand -57.2131 33.7756
lfingers 7.12502
lthumb -29.4949 61.4532
rfemur 6.00714 -19.7348 15.3958
rtibia 20.0155
rfoot 14.1944 6.05186
rtoes -0.227522
lfemur 2.48013 12.1372 -2.05499
ltibia 26.9273
lfoot 6.66003 -15.8802
ltoes 6.81751
